<svg width="105" height="147" viewBox="0 0 105 147" fill="none" xmlns="http://www.w3.org/2000/svg">
<path fill-rule="evenodd" clip-rule="evenodd" d="M76 40.5C76 46.8513 70.8513 52 64.5 52C59.9828 52 56.2686 51.999 53.0497 51.9504C53.001 48.7314 53 45.0172 53 40.5C53 34.1487 58.1487 29 64.5 29C70.8513 29 76 34.1487 76 40.5ZM53 81V90H80C84.4183 90 88 93.5817 88 98C88 102.418 84.4183 106 80 106H53V119.812C53 134.828 40.8277 147 25.8125 147C24.8115 147 24 146.189 24 145.188V106H8C3.58173 106 0 102.418 0 98C0 93.5817 3.58173 90 8 90H24V81H8C3.58173 81 0 77.4183 0 73C0 68.5817 3.58173 65 8 65H24V44.1162C24 44.0196 24.0003 43.9234 24.0009 43.8269C24 42.7495 24 41.6408 24 40.5C24 18.1325 42.1325 0 64.5 0C86.8675 0 105 18.1325 105 40.5C105 62.567 87.3514 80.5121 65.3991 80.9902C65.2669 80.9967 65.1339 81 65 81H64.5H53ZM53.6267 61.9261C53.6747 62.1002 53.6929 62.1973 53.69 62.2024C53.687 62.2074 53.663 62.1203 53.6267 61.9261Z" fill="#142D0B"/>
</svg>
