<svg width="123" height="109" viewBox="0 0 123 109" fill="none" xmlns="http://www.w3.org/2000/svg">
<ellipse cx="80.7576" cy="33.2969" rx="42.5721" ry="11.2671" transform="rotate(34.2975 80.7576 33.2969)" fill="white"/>
<ellipse cx="102.396" cy="84.9907" rx="23.9721" ry="6.95138" transform="rotate(89.6888 102.396 84.9907)" fill="white"/>
<ellipse cx="17.8972" cy="84.9891" rx="23.9705" ry="6.95138" transform="rotate(89.6888 17.8972 84.9891)" fill="white"/>
<ellipse cx="59.4867" cy="106.948" rx="33.1234" ry="2.02796" transform="rotate(-180 59.4867 106.948)" fill="white"/>
<ellipse cx="26.4022" cy="40.5736" rx="26.7656" ry="10.0002" transform="rotate(137.036 26.4022 40.5736)" fill="white"/>
<path fill-rule="evenodd" clip-rule="evenodd" d="M57.2109 73.9988C58.0308 74.0099 58.6962 74.6717 58.7109 75.4915C58.8116 81.0922 59.152 85.3184 59.5331 85.3164C59.9136 85.3143 60.2078 81.0972 60.2483 75.5081C60.2543 74.6818 60.9225 74.0101 61.7488 73.999C67.388 73.9232 71.6546 73.5696 71.6546 73.1448C71.6546 72.7194 67.3752 72.3654 61.7233 72.2904C60.9034 72.2795 60.2377 71.6176 60.2229 70.7977C60.1221 65.2011 59.7818 60.9791 59.4009 60.9812C59.0206 60.9833 58.7264 65.1967 58.6858 70.7821C58.6798 71.6083 58.0118 72.2799 57.1857 72.2912C51.5659 72.3681 47.3191 72.721 47.3191 73.1448C47.3191 73.5693 51.5786 73.9227 57.2109 73.9988Z" fill="white"/>
<mask id="path-7-inside-1_30_710" fill="white">
<rect x="47.3191" y="60.9812" width="24.3355" height="24.3355" rx="1.5"/>
</mask>
<rect x="47.3191" y="60.9812" width="24.3355" height="24.3355" rx="1.5" stroke="white" stroke-width="4" mask="url(#path-7-inside-1_30_710)"/>
</svg>
